<?xml version="1.0" encoding="utf-8" standalone="no"?>
<!DOCTYPE svg PUBLIC "-//W3C//DTD SVG 1.1//EN"
  "http://www.w3.org/Graphics/SVG/1.1/DTD/svg11.dtd">
<svg xmlns:xlink="http://www.w3.org/1999/xlink" width="839.530781pt" height="311.888906pt" viewBox="0 0 839.530781 311.888906" xmlns="http://www.w3.org/2000/svg" version="1.1">
 <metadata>
  <rdf:RDF xmlns:dc="http://purl.org/dc/elements/1.1/" xmlns:cc="http://creativecommons.org/ns#" xmlns:rdf="http://www.w3.org/1999/02/22-rdf-syntax-ns#">
   <cc:Work>
    <dc:type rdf:resource="http://purl.org/dc/dcmitype/StillImage"/>
    <dc:date>2026-05-09T14:41:32.339396</dc:date>
    <dc:format>image/svg+xml</dc:format>
    <dc:creator>
     <cc:Agent>
      <dc:title>Matplotlib v3.10.8, https://matplotlib.org/</dc:title>
     </cc:Agent>
    </dc:creator>
   </cc:Work>
  </rdf:RDF>
 </metadata>
 <defs>
  <style type="text/css">*{stroke-linejoin: round; stroke-linecap: butt}</style>
 </defs>
 <g id="figure_1">
  <g id="patch_1">
   <path d="M 0 311.888906 
L 839.530781 311.888906 
L 839.530781 0 
L 0 0 
z
" style="fill: #ffffff"/>
  </g>
  <g id="axes_1">
   <g id="patch_2">
    <path d="M 67.360781 254.22 
L 400.996294 254.22 
L 400.996294 60.48 
L 67.360781 60.48 
z
" style="fill: #ffffff"/>
   </g>
   <g id="matplotlib.axis_1">
    <g id="xtick_1">
     <g id="text_1">
      <!-- 0.0 -->
      <g style="fill: #262626" transform="translate(69.385274 279.257422) scale(0.165 -0.165)">
       <defs>
        <path id="DejaVuSans-30" d="M 2034 4250 
Q 1547 4250 1301 3770 
Q 1056 3291 1056 2328 
Q 1056 1369 1301 889 
Q 1547 409 2034 409 
Q 2525 409 2770 889 
Q 3016 1369 3016 2328 
Q 3016 3291 2770 3770 
Q 2525 4250 2034 4250 
z
M 2034 4750 
Q 2819 4750 3233 4129 
Q 3647 3509 3647 2328 
Q 3647 1150 3233 529 
Q 2819 -91 2034 -91 
Q 1250 -91 836 529 
Q 422 1150 422 2328 
Q 422 3509 836 4129 
Q 1250 4750 2034 4750 
z
" transform="scale(0.015625)"/>
        <path id="DejaVuSans-2e" d="M 684 794 
L 1344 794 
L 1344 0 
L 684 0 
L 684 794 
z
" transform="scale(0.015625)"/>
       </defs>
       <use xlink:href="#DejaVuSans-30"/>
       <use xlink:href="#DejaVuSans-2e" transform="translate(63.623047 0)"/>
       <use xlink:href="#DejaVuSans-30" transform="translate(95.410156 0)"/>
      </g>
     </g>
    </g>
    <g id="xtick_2">
     <g id="text_2">
      <!-- 0.2 -->
      <g style="fill: #262626" transform="translate(133.018563 279.257422) scale(0.165 -0.165)">
       <defs>
        <path id="DejaVuSans-32" d="M 1228 531 
L 3431 531 
L 3431 0 
L 469 0 
L 469 531 
Q 828 903 1448 1529 
Q 2069 2156 2228 2338 
Q 2531 2678 2651 2914 
Q 2772 3150 2772 3378 
Q 2772 3750 2511 3984 
Q 2250 4219 1831 4219 
Q 1534 4219 1204 4116 
Q 875 4013 500 3803 
L 500 4441 
Q 881 4594 1212 4672 
Q 1544 4750 1819 4750 
Q 2544 4750 2975 4387 
Q 3406 4025 3406 3419 
Q 3406 3131 3298 2873 
Q 3191 2616 2906 2266 
Q 2828 2175 2409 1742 
Q 1991 1309 1228 531 
z
" transform="scale(0.015625)"/>
       </defs>
       <use xlink:href="#DejaVuSans-30"/>
       <use xlink:href="#DejaVuSans-2e" transform="translate(63.623047 0)"/>
       <use xlink:href="#DejaVuSans-32" transform="translate(95.410156 0)"/>
      </g>
     </g>
    </g>
    <g id="xtick_3">
     <g id="text_3">
      <!-- 0.4 -->
      <g style="fill: #262626" transform="translate(196.651853 279.257422) scale(0.165 -0.165)">
       <defs>
        <path id="DejaVuSans-34" d="M 2419 4116 
L 825 1625 
L 2419 1625 
L 2419 4116 
z
M 2253 4666 
L 3047 4666 
L 3047 1625 
L 3713 1625 
L 3713 1100 
L 3047 1100 
L 3047 0 
L 2419 0 
L 2419 1100 
L 313 1100 
L 313 1709 
L 2253 4666 
z
" transform="scale(0.015625)"/>
       </defs>
       <use xlink:href="#DejaVuSans-30"/>
       <use xlink:href="#DejaVuSans-2e" transform="translate(63.623047 0)"/>
       <use xlink:href="#DejaVuSans-34" transform="translate(95.410156 0)"/>
      </g>
     </g>
    </g>
    <g id="xtick_4">
     <g id="text_4">
      <!-- 0.6 -->
      <g style="fill: #262626" transform="translate(260.285142 279.257422) scale(0.165 -0.165)">
       <defs>
        <path id="DejaVuSans-36" d="M 2113 2584 
Q 1688 2584 1439 2293 
Q 1191 2003 1191 1497 
Q 1191 994 1439 701 
Q 1688 409 2113 409 
Q 2538 409 2786 701 
Q 3034 994 3034 1497 
Q 3034 2003 2786 2293 
Q 2538 2584 2113 2584 
z
M 3366 4563 
L 3366 3988 
Q 3128 4100 2886 4159 
Q 2644 4219 2406 4219 
Q 1781 4219 1451 3797 
Q 1122 3375 1075 2522 
Q 1259 2794 1537 2939 
Q 1816 3084 2150 3084 
Q 2853 3084 3261 2657 
Q 3669 2231 3669 1497 
Q 3669 778 3244 343 
Q 2819 -91 2113 -91 
Q 1303 -91 875 529 
Q 447 1150 447 2328 
Q 447 3434 972 4092 
Q 1497 4750 2381 4750 
Q 2619 4750 2861 4703 
Q 3103 4656 3366 4563 
z
" transform="scale(0.015625)"/>
       </defs>
       <use xlink:href="#DejaVuSans-30"/>
       <use xlink:href="#DejaVuSans-2e" transform="translate(63.623047 0)"/>
       <use xlink:href="#DejaVuSans-36" transform="translate(95.410156 0)"/>
      </g>
     </g>
    </g>
    <g id="xtick_5">
     <g id="text_5">
      <!-- 0.8 -->
      <g style="fill: #262626" transform="translate(323.918431 279.257422) scale(0.165 -0.165)">
       <defs>
        <path id="DejaVuSans-38" d="M 2034 2216 
Q 1584 2216 1326 1975 
Q 1069 1734 1069 1313 
Q 1069 891 1326 650 
Q 1584 409 2034 409 
Q 2484 409 2743 651 
Q 3003 894 3003 1313 
Q 3003 1734 2745 1975 
Q 2488 2216 2034 2216 
z
M 1403 2484 
Q 997 2584 770 2862 
Q 544 3141 544 3541 
Q 544 4100 942 4425 
Q 1341 4750 2034 4750 
Q 2731 4750 3128 4425 
Q 3525 4100 3525 3541 
Q 3525 3141 3298 2862 
Q 3072 2584 2669 2484 
Q 3125 2378 3379 2068 
Q 3634 1759 3634 1313 
Q 3634 634 3220 271 
Q 2806 -91 2034 -91 
Q 1263 -91 848 271 
Q 434 634 434 1313 
Q 434 1759 690 2068 
Q 947 2378 1403 2484 
z
M 1172 3481 
Q 1172 3119 1398 2916 
Q 1625 2713 2034 2713 
Q 2441 2713 2670 2916 
Q 2900 3119 2900 3481 
Q 2900 3844 2670 4047 
Q 2441 4250 2034 4250 
Q 1625 4250 1398 4047 
Q 1172 3844 1172 3481 
z
" transform="scale(0.015625)"/>
       </defs>
       <use xlink:href="#DejaVuSans-30"/>
       <use xlink:href="#DejaVuSans-2e" transform="translate(63.623047 0)"/>
       <use xlink:href="#DejaVuSans-38" transform="translate(95.410156 0)"/>
      </g>
     </g>
    </g>
    <g id="xtick_6">
     <g id="text_6">
      <!-- 1.0 -->
      <g style="fill: #262626" transform="translate(387.551721 279.257422) scale(0.165 -0.165)">
       <defs>
        <path id="DejaVuSans-31" d="M 794 531 
L 1825 531 
L 1825 4091 
L 703 3866 
L 703 4441 
L 1819 4666 
L 2450 4666 
L 2450 531 
L 3481 531 
L 3481 0 
L 794 0 
L 794 531 
z
" transform="scale(0.015625)"/>
       </defs>
       <use xlink:href="#DejaVuSans-31"/>
       <use xlink:href="#DejaVuSans-2e" transform="translate(63.623047 0)"/>
       <use xlink:href="#DejaVuSans-30" transform="translate(95.410156 0)"/>
      </g>
     </g>
    </g>
    <g id="text_7">
     <!-- Decoded sample-mean |correlation| -->
     <g style="fill: #262626" transform="translate(72.725569 300.444844) scale(0.18 -0.18)">
      <defs>
       <path id="DejaVuSans-44" d="M 1259 4147 
L 1259 519 
L 2022 519 
Q 2988 519 3436 956 
Q 3884 1394 3884 2338 
Q 3884 3275 3436 3711 
Q 2988 4147 2022 4147 
L 1259 4147 
z
M 628 4666 
L 1925 4666 
Q 3281 4666 3915 4102 
Q 4550 3538 4550 2338 
Q 4550 1131 3912 565 
Q 3275 0 1925 0 
L 628 0 
L 628 4666 
z
" transform="scale(0.015625)"/>
       <path id="DejaVuSans-65" d="M 3597 1894 
L 3597 1613 
L 953 1613 
Q 991 1019 1311 708 
Q 1631 397 2203 397 
Q 2534 397 2845 478 
Q 3156 559 3463 722 
L 3463 178 
Q 3153 47 2828 -22 
Q 2503 -91 2169 -91 
Q 1331 -91 842 396 
Q 353 884 353 1716 
Q 353 2575 817 3079 
Q 1281 3584 2069 3584 
Q 2775 3584 3186 3129 
Q 3597 2675 3597 1894 
z
M 3022 2063 
Q 3016 2534 2758 2815 
Q 2500 3097 2075 3097 
Q 1594 3097 1305 2825 
Q 1016 2553 972 2059 
L 3022 2063 
z
" transform="scale(0.015625)"/>
       <path id="DejaVuSans-63" d="M 3122 3366 
L 3122 2828 
Q 2878 2963 2633 3030 
Q 2388 3097 2138 3097 
Q 1578 3097 1268 2742 
Q 959 2388 959 1747 
Q 959 1106 1268 751 
Q 1578 397 2138 397 
Q 2388 397 2633 464 
Q 2878 531 3122 666 
L 3122 134 
Q 2881 22 2623 -34 
Q 2366 -91 2075 -91 
Q 1284 -91 818 406 
Q 353 903 353 1747 
Q 353 2603 823 3093 
Q 1294 3584 2113 3584 
Q 2378 3584 2631 3529 
Q 2884 3475 3122 3366 
z
" transform="scale(0.015625)"/>
       <path id="DejaVuSans-6f" d="M 1959 3097 
Q 1497 3097 1228 2736 
Q 959 2375 959 1747 
Q 959 1119 1226 758 
Q 1494 397 1959 397 
Q 2419 397 2687 759 
Q 2956 1122 2956 1747 
Q 2956 2369 2687 2733 
Q 2419 3097 1959 3097 
z
M 1959 3584 
Q 2709 3584 3137 3096 
Q 3566 2609 3566 1747 
Q 3566 888 3137 398 
Q 2709 -91 1959 -91 
Q 1206 -91 779 398 
Q 353 888 353 1747 
Q 353 2609 779 3096 
Q 1206 3584 1959 3584 
z
" transform="scale(0.015625)"/>
       <path id="DejaVuSans-64" d="M 2906 2969 
L 2906 4863 
L 3481 4863 
L 3481 0 
L 2906 0 
L 2906 525 
Q 2725 213 2448 61 
Q 2172 -91 1784 -91 
Q 1150 -91 751 415 
Q 353 922 353 1747 
Q 353 2572 751 3078 
Q 1150 3584 1784 3584 
Q 2172 3584 2448 3432 
Q 2725 3281 2906 2969 
z
M 947 1747 
Q 947 1113 1208 752 
Q 1469 391 1925 391 
Q 2381 391 2643 752 
Q 2906 1113 2906 1747 
Q 2906 2381 2643 2742 
Q 2381 3103 1925 3103 
Q 1469 3103 1208 2742 
Q 947 2381 947 1747 
z
" transform="scale(0.015625)"/>
       <path id="DejaVuSans-20" transform="scale(0.015625)"/>
       <path id="DejaVuSans-73" d="M 2834 3397 
L 2834 2853 
Q 2591 2978 2328 3040 
Q 2066 3103 1784 3103 
Q 1356 3103 1142 2972 
Q 928 2841 928 2578 
Q 928 2378 1081 2264 
Q 1234 2150 1697 2047 
L 1894 2003 
Q 2506 1872 2764 1633 
Q 3022 1394 3022 966 
Q 3022 478 2636 193 
Q 2250 -91 1575 -91 
Q 1294 -91 989 -36 
Q 684 19 347 128 
L 347 722 
Q 666 556 975 473 
Q 1284 391 1588 391 
Q 1994 391 2212 530 
Q 2431 669 2431 922 
Q 2431 1156 2273 1281 
Q 2116 1406 1581 1522 
L 1381 1569 
Q 847 1681 609 1914 
Q 372 2147 372 2553 
Q 372 3047 722 3315 
Q 1072 3584 1716 3584 
Q 2034 3584 2315 3537 
Q 2597 3491 2834 3397 
z
" transform="scale(0.015625)"/>
       <path id="DejaVuSans-61" d="M 2194 1759 
Q 1497 1759 1228 1600 
Q 959 1441 959 1056 
Q 959 750 1161 570 
Q 1363 391 1709 391 
Q 2188 391 2477 730 
Q 2766 1069 2766 1631 
L 2766 1759 
L 2194 1759 
z
M 3341 1997 
L 3341 0 
L 2766 0 
L 2766 531 
Q 2569 213 2275 61 
Q 1981 -91 1556 -91 
Q 1019 -91 701 211 
Q 384 513 384 1019 
Q 384 1609 779 1909 
Q 1175 2209 1959 2209 
L 2766 2209 
L 2766 2266 
Q 2766 2663 2505 2880 
Q 2244 3097 1772 3097 
Q 1472 3097 1187 3025 
Q 903 2953 641 2809 
L 641 3341 
Q 956 3463 1253 3523 
Q 1550 3584 1831 3584 
Q 2591 3584 2966 3190 
Q 3341 2797 3341 1997 
z
" transform="scale(0.015625)"/>
       <path id="DejaVuSans-6d" d="M 3328 2828 
Q 3544 3216 3844 3400 
Q 4144 3584 4550 3584 
Q 5097 3584 5394 3201 
Q 5691 2819 5691 2113 
L 5691 0 
L 5113 0 
L 5113 2094 
Q 5113 2597 4934 2840 
Q 4756 3084 4391 3084 
Q 3944 3084 3684 2787 
Q 3425 2491 3425 1978 
L 3425 0 
L 2847 0 
L 2847 2094 
Q 2847 2600 2669 2842 
Q 2491 3084 2119 3084 
Q 1678 3084 1418 2786 
Q 1159 2488 1159 1978 
L 1159 0 
L 581 0 
L 581 3500 
L 1159 3500 
L 1159 2956 
Q 1356 3278 1631 3431 
Q 1906 3584 2284 3584 
Q 2666 3584 2933 3390 
Q 3200 3197 3328 2828 
z
" transform="scale(0.015625)"/>
       <path id="DejaVuSans-70" d="M 1159 525 
L 1159 -1331 
L 581 -1331 
L 581 3500 
L 1159 3500 
L 1159 2969 
Q 1341 3281 1617 3432 
Q 1894 3584 2278 3584 
Q 2916 3584 3314 3078 
Q 3713 2572 3713 1747 
Q 3713 922 3314 415 
Q 2916 -91 2278 -91 
Q 1894 -91 1617 61 
Q 1341 213 1159 525 
z
M 3116 1747 
Q 3116 2381 2855 2742 
Q 2594 3103 2138 3103 
Q 1681 3103 1420 2742 
Q 1159 2381 1159 1747 
Q 1159 1113 1420 752 
Q 1681 391 2138 391 
Q 2594 391 2855 752 
Q 3116 1113 3116 1747 
z
" transform="scale(0.015625)"/>
       <path id="DejaVuSans-6c" d="M 603 4863 
L 1178 4863 
L 1178 0 
L 603 0 
L 603 4863 
z
" transform="scale(0.015625)"/>
       <path id="DejaVuSans-2d" d="M 313 2009 
L 1997 2009 
L 1997 1497 
L 313 1497 
L 313 2009 
z
" transform="scale(0.015625)"/>
       <path id="DejaVuSans-6e" d="M 3513 2113 
L 3513 0 
L 2938 0 
L 2938 2094 
Q 2938 2591 2744 2837 
Q 2550 3084 2163 3084 
Q 1697 3084 1428 2787 
Q 1159 2491 1159 1978 
L 1159 0 
L 581 0 
L 581 3500 
L 1159 3500 
L 1159 2956 
Q 1366 3272 1645 3428 
Q 1925 3584 2291 3584 
Q 2894 3584 3203 3211 
Q 3513 2838 3513 2113 
z
" transform="scale(0.015625)"/>
       <path id="DejaVuSans-7c" d="M 1344 4891 
L 1344 -1509 
L 813 -1509 
L 813 4891 
L 1344 4891 
z
" transform="scale(0.015625)"/>
       <path id="DejaVuSans-72" d="M 2631 2963 
Q 2534 3019 2420 3045 
Q 2306 3072 2169 3072 
Q 1681 3072 1420 2755 
Q 1159 2438 1159 1844 
L 1159 0 
L 581 0 
L 581 3500 
L 1159 3500 
L 1159 2956 
Q 1341 3275 1631 3429 
Q 1922 3584 2338 3584 
Q 2397 3584 2469 3576 
Q 2541 3569 2628 3553 
L 2631 2963 
z
" transform="scale(0.015625)"/>
       <path id="DejaVuSans-74" d="M 1172 4494 
L 1172 3500 
L 2356 3500 
L 2356 3053 
L 1172 3053 
L 1172 1153 
Q 1172 725 1289 603 
Q 1406 481 1766 481 
L 2356 481 
L 2356 0 
L 1766 0 
Q 1100 0 847 248 
Q 594 497 594 1153 
L 594 3053 
L 172 3053 
L 172 3500 
L 594 3500 
L 594 4494 
L 1172 4494 
z
" transform="scale(0.015625)"/>
       <path id="DejaVuSans-69" d="M 603 3500 
L 1178 3500 
L 1178 0 
L 603 0 
L 603 3500 
z
M 603 4863 
L 1178 4863 
L 1178 4134 
L 603 4134 
L 603 4863 
z
" transform="scale(0.015625)"/>
      </defs>
      <use xlink:href="#DejaVuSans-44"/>
      <use xlink:href="#DejaVuSans-65" transform="translate(77.001953 0)"/>
      <use xlink:href="#DejaVuSans-63" transform="translate(138.525391 0)"/>
      <use xlink:href="#DejaVuSans-6f" transform="translate(193.505859 0)"/>
      <use xlink:href="#DejaVuSans-64" transform="translate(254.6875 0)"/>
      <use xlink:href="#DejaVuSans-65" transform="translate(318.164062 0)"/>
      <use xlink:href="#DejaVuSans-64" transform="translate(379.6875 0)"/>
      <use xlink:href="#DejaVuSans-20" transform="translate(443.164062 0)"/>
      <use xlink:href="#DejaVuSans-73" transform="translate(474.951172 0)"/>
      <use xlink:href="#DejaVuSans-61" transform="translate(527.050781 0)"/>
      <use xlink:href="#DejaVuSans-6d" transform="translate(588.330078 0)"/>
      <use xlink:href="#DejaVuSans-70" transform="translate(685.742188 0)"/>
      <use xlink:href="#DejaVuSans-6c" transform="translate(749.21875 0)"/>
      <use xlink:href="#DejaVuSans-65" transform="translate(777.001953 0)"/>
      <use xlink:href="#DejaVuSans-2d" transform="translate(838.525391 0)"/>
      <use xlink:href="#DejaVuSans-6d" transform="translate(874.609375 0)"/>
      <use xlink:href="#DejaVuSans-65" transform="translate(972.021484 0)"/>
      <use xlink:href="#DejaVuSans-61" transform="translate(1033.544922 0)"/>
      <use xlink:href="#DejaVuSans-6e" transform="translate(1094.824219 0)"/>
      <use xlink:href="#DejaVuSans-20" transform="translate(1158.203125 0)"/>
      <use xlink:href="#DejaVuSans-7c" transform="translate(1189.990234 0)"/>
      <use xlink:href="#DejaVuSans-63" transform="translate(1223.681641 0)"/>
      <use xlink:href="#DejaVuSans-6f" transform="translate(1278.662109 0)"/>
      <use xlink:href="#DejaVuSans-72" transform="translate(1339.84375 0)"/>
      <use xlink:href="#DejaVuSans-72" transform="translate(1379.207031 0)"/>
      <use xlink:href="#DejaVuSans-65" transform="translate(1418.070312 0)"/>
      <use xlink:href="#DejaVuSans-6c" transform="translate(1479.59375 0)"/>
      <use xlink:href="#DejaVuSans-61" transform="translate(1507.376953 0)"/>
      <use xlink:href="#DejaVuSans-74" transform="translate(1568.65625 0)"/>
      <use xlink:href="#DejaVuSans-69" transform="translate(1607.865234 0)"/>
      <use xlink:href="#DejaVuSans-6f" transform="translate(1635.648438 0)"/>
      <use xlink:href="#DejaVuSans-6e" transform="translate(1696.830078 0)"/>
      <use xlink:href="#DejaVuSans-7c" transform="translate(1760.208984 0)"/>
     </g>
    </g>
   </g>
   <g id="matplotlib.axis_2">
    <g id="ytick_1">
     <g id="text_8">
      <!-- 0.0 -->
      <g style="fill: #262626" transform="translate(28.620625 260.488711) scale(0.165 -0.165)">
       <use xlink:href="#DejaVuSans-30"/>
       <use xlink:href="#DejaVuSans-2e" transform="translate(63.623047 0)"/>
       <use xlink:href="#DejaVuSans-30" transform="translate(95.410156 0)"/>
      </g>
     </g>
    </g>
    <g id="ytick_2">
     <g id="text_9">
      <!-- 0.5 -->
      <g style="fill: #262626" transform="translate(28.620625 213.894589) scale(0.165 -0.165)">
       <defs>
        <path id="DejaVuSans-35" d="M 691 4666 
L 3169 4666 
L 3169 4134 
L 1269 4134 
L 1269 2991 
Q 1406 3038 1543 3061 
Q 1681 3084 1819 3084 
Q 2600 3084 3056 2656 
Q 3513 2228 3513 1497 
Q 3513 744 3044 326 
Q 2575 -91 1722 -91 
Q 1428 -91 1123 -41 
Q 819 9 494 109 
L 494 744 
Q 775 591 1075 516 
Q 1375 441 1709 441 
Q 2250 441 2565 725 
Q 2881 1009 2881 1497 
Q 2881 1984 2565 2268 
Q 2250 2553 1709 2553 
Q 1456 2553 1204 2497 
Q 953 2441 691 2322 
L 691 4666 
z
" transform="scale(0.015625)"/>
       </defs>
       <use xlink:href="#DejaVuSans-30"/>
       <use xlink:href="#DejaVuSans-2e" transform="translate(63.623047 0)"/>
       <use xlink:href="#DejaVuSans-35" transform="translate(95.410156 0)"/>
      </g>
     </g>
    </g>
    <g id="ytick_3">
     <g id="text_10">
      <!-- 1.0 -->
      <g style="fill: #262626" transform="translate(28.620625 167.300468) scale(0.165 -0.165)">
       <use xlink:href="#DejaVuSans-31"/>
       <use xlink:href="#DejaVuSans-2e" transform="translate(63.623047 0)"/>
       <use xlink:href="#DejaVuSans-30" transform="translate(95.410156 0)"/>
      </g>
     </g>
    </g>
    <g id="ytick_4">
     <g id="text_11">
      <!-- 1.5 -->
      <g style="fill: #262626" transform="translate(28.620625 120.706346) scale(0.165 -0.165)">
       <use xlink:href="#DejaVuSans-31"/>
       <use xlink:href="#DejaVuSans-2e" transform="translate(63.623047 0)"/>
       <use xlink:href="#DejaVuSans-35" transform="translate(95.410156 0)"/>
      </g>
     </g>
    </g>
    <g id="ytick_5">
     <g id="text_12">
      <!-- 2.0 -->
      <g style="fill: #262626" transform="translate(28.620625 74.112224) scale(0.165 -0.165)">
       <use xlink:href="#DejaVuSans-32"/>
       <use xlink:href="#DejaVuSans-2e" transform="translate(63.623047 0)"/>
       <use xlink:href="#DejaVuSans-30" transform="translate(95.410156 0)"/>
      </g>
     </g>
    </g>
    <g id="text_13">
     <!-- Density -->
     <g style="fill: #262626" transform="translate(20.877187 191.565469) rotate(-90) scale(0.18 -0.18)">
      <defs>
       <path id="DejaVuSans-79" d="M 2059 -325 
Q 1816 -950 1584 -1140 
Q 1353 -1331 966 -1331 
L 506 -1331 
L 506 -850 
L 844 -850 
Q 1081 -850 1212 -737 
Q 1344 -625 1503 -206 
L 1606 56 
L 191 3500 
L 800 3500 
L 1894 763 
L 2988 3500 
L 3597 3500 
L 2059 -325 
z
" transform="scale(0.015625)"/>
      </defs>
      <use xlink:href="#DejaVuSans-44"/>
      <use xlink:href="#DejaVuSans-65" transform="translate(77.001953 0)"/>
      <use xlink:href="#DejaVuSans-6e" transform="translate(138.525391 0)"/>
      <use xlink:href="#DejaVuSans-73" transform="translate(201.904297 0)"/>
      <use xlink:href="#DejaVuSans-69" transform="translate(254.003906 0)"/>
      <use xlink:href="#DejaVuSans-74" transform="translate(281.787109 0)"/>
      <use xlink:href="#DejaVuSans-79" transform="translate(320.996094 0)"/>
     </g>
    </g>
   </g>
   <g id="patch_3">
    <path d="M 82.526032 254.22 
L 90.108657 254.22 
L 90.108657 162.62006 
L 82.526032 162.62006 
z
" clip-path="url(#pad44d8f646)" style="fill: #b2b2b2; fill-opacity: 0.75; stroke: #ffffff; stroke-width: 0.691736; stroke-linejoin: miter"/>
   </g>
   <g id="patch_4">
    <path d="M 90.108657 254.22 
L 97.691282 254.22 
L 97.691282 154.986732 
L 90.108657 154.986732 
z
" clip-path="url(#pad44d8f646)" style="fill: #b2b2b2; fill-opacity: 0.75; stroke: #ffffff; stroke-width: 0.691736; stroke-linejoin: miter"/>
   </g>
   <g id="patch_5">
    <path d="M 97.691282 254.22 
L 105.273908 254.22 
L 105.273908 156.895064 
L 97.691282 156.895064 
z
" clip-path="url(#pad44d8f646)" style="fill: #b2b2b2; fill-opacity: 0.75; stroke: #ffffff; stroke-width: 0.691736; stroke-linejoin: miter"/>
   </g>
   <g id="patch_6">
    <path d="M 105.273908 254.22 
L 112.856533 254.22 
L 112.856533 153.0784 
L 105.273908 153.0784 
z
" clip-path="url(#pad44d8f646)" style="fill: #b2b2b2; fill-opacity: 0.75; stroke: #ffffff; stroke-width: 0.691736; stroke-linejoin: miter"/>
   </g>
   <g id="patch_7">
    <path d="M 112.856533 254.22 
L 120.439158 254.22 
L 120.439158 160.711728 
L 112.856533 160.711728 
z
" clip-path="url(#pad44d8f646)" style="fill: #b2b2b2; fill-opacity: 0.75; stroke: #ffffff; stroke-width: 0.691736; stroke-linejoin: miter"/>
   </g>
   <g id="patch_8">
    <path d="M 120.439158 254.22 
L 128.021784 254.22 
L 128.021784 166.436725 
L 120.439158 166.436725 
z
" clip-path="url(#pad44d8f646)" style="fill: #b2b2b2; fill-opacity: 0.75; stroke: #ffffff; stroke-width: 0.691736; stroke-linejoin: miter"/>
   </g>
   <g id="patch_9">
    <path d="M 128.021784 254.22 
L 135.604409 254.22 
L 135.604409 166.436725 
L 128.021784 166.436725 
z
" clip-path="url(#pad44d8f646)" style="fill: #b2b2b2; fill-opacity: 0.75; stroke: #ffffff; stroke-width: 0.691736; stroke-linejoin: miter"/>
   </g>
   <g id="patch_10">
    <path d="M 135.604409 254.22 
L 143.187034 254.22 
L 143.187034 151.170068 
L 135.604409 151.170068 
z
" clip-path="url(#pad44d8f646)" style="fill: #b2b2b2; fill-opacity: 0.75; stroke: #ffffff; stroke-width: 0.691736; stroke-linejoin: miter"/>
   </g>
   <g id="patch_11">
    <path d="M 143.187034 254.22 
L 150.769659 254.22 
L 150.769659 160.711728 
L 143.187034 160.711728 
z
" clip-path="url(#pad44d8f646)" style="fill: #b2b2b2; fill-opacity: 0.75; stroke: #ffffff; stroke-width: 0.691736; stroke-linejoin: miter"/>
   </g>
   <g id="patch_12">
    <path d="M 150.769659 254.22 
L 158.352285 254.22 
L 158.352285 153.0784 
L 150.769659 153.0784 
z
" clip-path="url(#pad44d8f646)" style="fill: #b2b2b2; fill-opacity: 0.75; stroke: #ffffff; stroke-width: 0.691736; stroke-linejoin: miter"/>
   </g>
   <g id="patch_13">
    <path d="M 158.352285 254.22 
L 165.93491 254.22 
L 165.93491 118.728423 
L 158.352285 118.728423 
z
" clip-path="url(#pad44d8f646)" style="fill: #b2b2b2; fill-opacity: 0.75; stroke: #ffffff; stroke-width: 0.691736; stroke-linejoin: miter"/>
   </g>
   <g id="patch_14">
    <path d="M 165.93491 254.22 
L 173.517535 254.22 
L 173.517535 160.711728 
L 165.93491 160.711728 
z
" clip-path="url(#pad44d8f646)" style="fill: #b2b2b2; fill-opacity: 0.75; stroke: #ffffff; stroke-width: 0.691736; stroke-linejoin: miter"/>
   </g>
   <g id="patch_15">
    <path d="M 173.517535 254.22 
L 181.100161 254.22 
L 181.100161 162.62006 
L 173.517535 162.62006 
z
" clip-path="url(#pad44d8f646)" style="fill: #b2b2b2; fill-opacity: 0.75; stroke: #ffffff; stroke-width: 0.691736; stroke-linejoin: miter"/>
   </g>
   <g id="patch_16">
    <path d="M 181.100161 254.22 
L 188.682786 254.22 
L 188.682786 158.803396 
L 181.100161 158.803396 
z
" clip-path="url(#pad44d8f646)" style="fill: #b2b2b2; fill-opacity: 0.75; stroke: #ffffff; stroke-width: 0.691736; stroke-linejoin: miter"/>
   </g>
   <g id="patch_17">
    <path d="M 188.682786 254.22 
L 196.265411 254.22 
L 196.265411 133.995079 
L 188.682786 133.995079 
z
" clip-path="url(#pad44d8f646)" style="fill: #b2b2b2; fill-opacity: 0.75; stroke: #ffffff; stroke-width: 0.691736; stroke-linejoin: miter"/>
   </g>
   <g id="patch_18">
    <path d="M 196.265411 254.22 
L 203.848036 254.22 
L 203.848036 158.803396 
L 196.265411 158.803396 
z
" clip-path="url(#pad44d8f646)" style="fill: #b2b2b2; fill-opacity: 0.75; stroke: #ffffff; stroke-width: 0.691736; stroke-linejoin: miter"/>
   </g>
   <g id="patch_19">
    <path d="M 203.848036 254.22 
L 211.430662 254.22 
L 211.430662 143.53674 
L 203.848036 143.53674 
z
" clip-path="url(#pad44d8f646)" style="fill: #b2b2b2; fill-opacity: 0.75; stroke: #ffffff; stroke-width: 0.691736; stroke-linejoin: miter"/>
   </g>
   <g id="patch_20">
    <path d="M 211.430662 254.22 
L 219.013287 254.22 
L 219.013287 160.711728 
L 211.430662 160.711728 
z
" clip-path="url(#pad44d8f646)" style="fill: #b2b2b2; fill-opacity: 0.75; stroke: #ffffff; stroke-width: 0.691736; stroke-linejoin: miter"/>
   </g>
   <g id="patch_21">
    <path d="M 219.013287 254.22 
L 226.595912 254.22 
L 226.595912 128.270083 
L 219.013287 128.270083 
z
" clip-path="url(#pad44d8f646)" style="fill: #b2b2b2; fill-opacity: 0.75; stroke: #ffffff; stroke-width: 0.691736; stroke-linejoin: miter"/>
   </g>
   <g id="patch_22">
    <path d="M 226.595912 254.22 
L 234.178538 254.22 
L 234.178538 147.353404 
L 226.595912 147.353404 
z
" clip-path="url(#pad44d8f646)" style="fill: #b2b2b2; fill-opacity: 0.75; stroke: #ffffff; stroke-width: 0.691736; stroke-linejoin: miter"/>
   </g>
   <g id="patch_23">
    <path d="M 234.178538 254.22 
L 241.761163 254.22 
L 241.761163 137.811743 
L 234.178538 137.811743 
z
" clip-path="url(#pad44d8f646)" style="fill: #b2b2b2; fill-opacity: 0.75; stroke: #ffffff; stroke-width: 0.691736; stroke-linejoin: miter"/>
   </g>
   <g id="patch_24">
    <path d="M 241.761163 254.22 
L 249.343788 254.22 
L 249.343788 149.261736 
L 241.761163 149.261736 
z
" clip-path="url(#pad44d8f646)" style="fill: #b2b2b2; fill-opacity: 0.75; stroke: #ffffff; stroke-width: 0.691736; stroke-linejoin: miter"/>
   </g>
   <g id="patch_25">
    <path d="M 249.343788 254.22 
L 256.926413 254.22 
L 256.926413 130.178415 
L 249.343788 130.178415 
z
" clip-path="url(#pad44d8f646)" style="fill: #b2b2b2; fill-opacity: 0.75; stroke: #ffffff; stroke-width: 0.691736; stroke-linejoin: miter"/>
   </g>
   <g id="patch_26">
    <path d="M 256.926413 254.22 
L 264.509039 254.22 
L 264.509039 86.286777 
L 256.926413 86.286777 
z
" clip-path="url(#pad44d8f646)" style="fill: #b2b2b2; fill-opacity: 0.75; stroke: #ffffff; stroke-width: 0.691736; stroke-linejoin: miter"/>
   </g>
   <g id="patch_27">
    <path d="M 264.509039 254.22 
L 272.091664 254.22 
L 272.091664 156.895064 
L 264.509039 156.895064 
z
" clip-path="url(#pad44d8f646)" style="fill: #b2b2b2; fill-opacity: 0.75; stroke: #ffffff; stroke-width: 0.691736; stroke-linejoin: miter"/>
   </g>
   <g id="patch_28">
    <path d="M 272.091664 254.22 
L 279.674289 254.22 
L 279.674289 149.261736 
L 272.091664 149.261736 
z
" clip-path="url(#pad44d8f646)" style="fill: #b2b2b2; fill-opacity: 0.75; stroke: #ffffff; stroke-width: 0.691736; stroke-linejoin: miter"/>
   </g>
   <g id="patch_29">
    <path d="M 279.674289 254.22 
L 287.256915 254.22 
L 287.256915 151.170068 
L 279.674289 151.170068 
z
" clip-path="url(#pad44d8f646)" style="fill: #b2b2b2; fill-opacity: 0.75; stroke: #ffffff; stroke-width: 0.691736; stroke-linejoin: miter"/>
   </g>
   <g id="patch_30">
    <path d="M 287.256915 254.22 
L 294.83954 254.22 
L 294.83954 177.886717 
L 287.256915 177.886717 
z
" clip-path="url(#pad44d8f646)" style="fill: #b2b2b2; fill-opacity: 0.75; stroke: #ffffff; stroke-width: 0.691736; stroke-linejoin: miter"/>
   </g>
   <g id="patch_31">
    <path d="M 294.83954 254.22 
L 302.422165 254.22 
L 302.422165 122.545087 
L 294.83954 122.545087 
z
" clip-path="url(#pad44d8f646)" style="fill: #b2b2b2; fill-opacity: 0.75; stroke: #ffffff; stroke-width: 0.691736; stroke-linejoin: miter"/>
   </g>
   <g id="patch_32">
    <path d="M 302.422165 254.22 
L 310.00479 254.22 
L 310.00479 153.0784 
L 302.422165 153.0784 
z
" clip-path="url(#pad44d8f646)" style="fill: #b2b2b2; fill-opacity: 0.75; stroke: #ffffff; stroke-width: 0.691736; stroke-linejoin: miter"/>
   </g>
   <g id="patch_33">
    <path d="M 310.00479 254.22 
L 317.587416 254.22 
L 317.587416 137.811743 
L 310.00479 137.811743 
z
" clip-path="url(#pad44d8f646)" style="fill: #b2b2b2; fill-opacity: 0.75; stroke: #ffffff; stroke-width: 0.691736; stroke-linejoin: miter"/>
   </g>
   <g id="patch_34">
    <path d="M 317.587416 254.22 
L 325.170041 254.22 
L 325.170041 147.353404 
L 317.587416 147.353404 
z
" clip-path="url(#pad44d8f646)" style="fill: #b2b2b2; fill-opacity: 0.75; stroke: #ffffff; stroke-width: 0.691736; stroke-linejoin: miter"/>
   </g>
   <g id="patch_35">
    <path d="M 325.170041 254.22 
L 332.752666 254.22 
L 332.752666 153.0784 
L 325.170041 153.0784 
z
" clip-path="url(#pad44d8f646)" style="fill: #b2b2b2; fill-opacity: 0.75; stroke: #ffffff; stroke-width: 0.691736; stroke-linejoin: miter"/>
   </g>
   <g id="patch_36">
    <path d="M 332.752666 254.22 
L 340.335292 254.22 
L 340.335292 162.62006 
L 332.752666 162.62006 
z
" clip-path="url(#pad44d8f646)" style="fill: #b2b2b2; fill-opacity: 0.75; stroke: #ffffff; stroke-width: 0.691736; stroke-linejoin: miter"/>
   </g>
   <g id="patch_37">
    <path d="M 340.335292 254.22 
L 347.917917 254.22 
L 347.917917 174.070053 
L 340.335292 174.070053 
z
" clip-path="url(#pad44d8f646)" style="fill: #b2b2b2; fill-opacity: 0.75; stroke: #ffffff; stroke-width: 0.691736; stroke-linejoin: miter"/>
   </g>
   <g id="patch_38">
    <path d="M 347.917917 254.22 
L 355.500542 254.22 
L 355.500542 185.520045 
L 347.917917 185.520045 
z
" clip-path="url(#pad44d8f646)" style="fill: #b2b2b2; fill-opacity: 0.75; stroke: #ffffff; stroke-width: 0.691736; stroke-linejoin: miter"/>
   </g>
   <g id="patch_39">
    <path d="M 355.500542 254.22 
L 363.083167 254.22 
L 363.083167 193.153374 
L 355.500542 193.153374 
z
" clip-path="url(#pad44d8f646)" style="fill: #b2b2b2; fill-opacity: 0.75; stroke: #ffffff; stroke-width: 0.691736; stroke-linejoin: miter"/>
   </g>
   <g id="patch_40">
    <path d="M 363.083167 254.22 
L 370.665793 254.22 
L 370.665793 189.336709 
L 363.083167 189.336709 
z
" clip-path="url(#pad44d8f646)" style="fill: #b2b2b2; fill-opacity: 0.75; stroke: #ffffff; stroke-width: 0.691736; stroke-linejoin: miter"/>
   </g>
   <g id="patch_41">
    <path d="M 370.665793 254.22 
L 378.248418 254.22 
L 378.248418 198.87837 
L 370.665793 198.87837 
z
" clip-path="url(#pad44d8f646)" style="fill: #b2b2b2; fill-opacity: 0.75; stroke: #ffffff; stroke-width: 0.691736; stroke-linejoin: miter"/>
   </g>
   <g id="patch_42">
    <path d="M 378.248418 254.22 
L 385.831043 254.22 
L 385.831043 242.770008 
L 378.248418 242.770008 
z
" clip-path="url(#pad44d8f646)" style="fill: #b2b2b2; fill-opacity: 0.75; stroke: #ffffff; stroke-width: 0.691736; stroke-linejoin: miter"/>
   </g>
   <g id="patch_43">
    <path d="M 82.990782 254.22 
L 92.9336 254.22 
L 92.9336 164.938894 
L 82.990782 164.938894 
z
" clip-path="url(#pad44d8f646)" style="fill: #1f77b4; fill-opacity: 0.75; stroke: #ffffff; stroke-width: 0.907047; stroke-linejoin: miter"/>
   </g>
   <g id="patch_44">
    <path d="M 92.9336 254.22 
L 102.876418 254.22 
L 102.876418 164.938894 
L 92.9336 164.938894 
z
" clip-path="url(#pad44d8f646)" style="fill: #1f77b4; fill-opacity: 0.75; stroke: #ffffff; stroke-width: 0.907047; stroke-linejoin: miter"/>
   </g>
   <g id="patch_45">
    <path d="M 102.876418 254.22 
L 112.819235 254.22 
L 112.819235 158.98682 
L 102.876418 158.98682 
z
" clip-path="url(#pad44d8f646)" style="fill: #1f77b4; fill-opacity: 0.75; stroke: #ffffff; stroke-width: 0.907047; stroke-linejoin: miter"/>
   </g>
   <g id="patch_46">
    <path d="M 112.819235 254.22 
L 122.762053 254.22 
L 122.762053 158.98682 
L 112.819235 158.98682 
z
" clip-path="url(#pad44d8f646)" style="fill: #1f77b4; fill-opacity: 0.75; stroke: #ffffff; stroke-width: 0.907047; stroke-linejoin: miter"/>
   </g>
   <g id="patch_47">
    <path d="M 122.762053 254.22 
L 132.704871 254.22 
L 132.704871 164.938894 
L 122.762053 164.938894 
z
" clip-path="url(#pad44d8f646)" style="fill: #1f77b4; fill-opacity: 0.75; stroke: #ffffff; stroke-width: 0.907047; stroke-linejoin: miter"/>
   </g>
   <g id="patch_48">
    <path d="M 132.704871 254.22 
L 142.647688 254.22 
L 142.647688 206.60341 
L 132.704871 206.60341 
z
" clip-path="url(#pad44d8f646)" style="fill: #1f77b4; fill-opacity: 0.75; stroke: #ffffff; stroke-width: 0.907047; stroke-linejoin: miter"/>
   </g>
   <g id="patch_49">
    <path d="M 142.647688 254.22 
L 152.590506 254.22 
L 152.590506 170.890968 
L 142.647688 170.890968 
z
" clip-path="url(#pad44d8f646)" style="fill: #1f77b4; fill-opacity: 0.75; stroke: #ffffff; stroke-width: 0.907047; stroke-linejoin: miter"/>
   </g>
   <g id="patch_50">
    <path d="M 152.590506 254.22 
L 162.533324 254.22 
L 162.533324 135.178525 
L 152.590506 135.178525 
z
" clip-path="url(#pad44d8f646)" style="fill: #1f77b4; fill-opacity: 0.75; stroke: #ffffff; stroke-width: 0.907047; stroke-linejoin: miter"/>
   </g>
   <g id="patch_51">
    <path d="M 162.533324 254.22 
L 172.476141 254.22 
L 172.476141 164.938894 
L 162.533324 164.938894 
z
" clip-path="url(#pad44d8f646)" style="fill: #1f77b4; fill-opacity: 0.75; stroke: #ffffff; stroke-width: 0.907047; stroke-linejoin: miter"/>
   </g>
   <g id="patch_52">
    <path d="M 172.476141 254.22 
L 182.418959 254.22 
L 182.418959 147.082673 
L 172.476141 147.082673 
z
" clip-path="url(#pad44d8f646)" style="fill: #1f77b4; fill-opacity: 0.75; stroke: #ffffff; stroke-width: 0.907047; stroke-linejoin: miter"/>
   </g>
   <g id="patch_53">
    <path d="M 182.418959 254.22 
L 192.361777 254.22 
L 192.361777 182.795115 
L 182.418959 182.795115 
z
" clip-path="url(#pad44d8f646)" style="fill: #1f77b4; fill-opacity: 0.75; stroke: #ffffff; stroke-width: 0.907047; stroke-linejoin: miter"/>
   </g>
   <g id="patch_54">
    <path d="M 192.361777 254.22 
L 202.304594 254.22 
L 202.304594 105.418157 
L 192.361777 105.418157 
z
" clip-path="url(#pad44d8f646)" style="fill: #1f77b4; fill-opacity: 0.75; stroke: #ffffff; stroke-width: 0.907047; stroke-linejoin: miter"/>
   </g>
   <g id="patch_55">
    <path d="M 202.304594 254.22 
L 212.247412 254.22 
L 212.247412 111.37023 
L 202.304594 111.37023 
z
" clip-path="url(#pad44d8f646)" style="fill: #1f77b4; fill-opacity: 0.75; stroke: #ffffff; stroke-width: 0.907047; stroke-linejoin: miter"/>
   </g>
   <g id="patch_56">
    <path d="M 212.247412 254.22 
L 222.190229 254.22 
L 222.190229 147.082673 
L 212.247412 147.082673 
z
" clip-path="url(#pad44d8f646)" style="fill: #1f77b4; fill-opacity: 0.75; stroke: #ffffff; stroke-width: 0.907047; stroke-linejoin: miter"/>
   </g>
   <g id="patch_57">
    <path d="M 222.190229 254.22 
L 232.133047 254.22 
L 232.133047 170.890968 
L 222.190229 170.890968 
z
" clip-path="url(#pad44d8f646)" style="fill: #1f77b4; fill-opacity: 0.75; stroke: #ffffff; stroke-width: 0.907047; stroke-linejoin: miter"/>
   </g>
   <g id="patch_58">
    <path d="M 232.133047 254.22 
L 242.075865 254.22 
L 242.075865 141.130599 
L 232.133047 141.130599 
z
" clip-path="url(#pad44d8f646)" style="fill: #1f77b4; fill-opacity: 0.75; stroke: #ffffff; stroke-width: 0.907047; stroke-linejoin: miter"/>
   </g>
   <g id="patch_59">
    <path d="M 242.075865 254.22 
L 252.018682 254.22 
L 252.018682 164.938894 
L 242.075865 164.938894 
z
" clip-path="url(#pad44d8f646)" style="fill: #1f77b4; fill-opacity: 0.75; stroke: #ffffff; stroke-width: 0.907047; stroke-linejoin: miter"/>
   </g>
   <g id="patch_60">
    <path d="M 252.018682 254.22 
L 261.9615 254.22 
L 261.9615 117.322304 
L 252.018682 117.322304 
z
" clip-path="url(#pad44d8f646)" style="fill: #1f77b4; fill-opacity: 0.75; stroke: #ffffff; stroke-width: 0.907047; stroke-linejoin: miter"/>
   </g>
   <g id="patch_61">
    <path d="M 261.9615 254.22 
L 271.904318 254.22 
L 271.904318 141.130599 
L 261.9615 141.130599 
z
" clip-path="url(#pad44d8f646)" style="fill: #1f77b4; fill-opacity: 0.75; stroke: #ffffff; stroke-width: 0.907047; stroke-linejoin: miter"/>
   </g>
   <g id="patch_62">
    <path d="M 271.904318 254.22 
L 281.847135 254.22 
L 281.847135 117.322304 
L 271.904318 117.322304 
z
" clip-path="url(#pad44d8f646)" style="fill: #1f77b4; fill-opacity: 0.75; stroke: #ffffff; stroke-width: 0.907047; stroke-linejoin: miter"/>
   </g>
   <g id="patch_63">
    <path d="M 281.847135 254.22 
L 291.789953 254.22 
L 291.789953 153.034747 
L 281.847135 153.034747 
z
" clip-path="url(#pad44d8f646)" style="fill: #1f77b4; fill-opacity: 0.75; stroke: #ffffff; stroke-width: 0.907047; stroke-linejoin: miter"/>
   </g>
   <g id="patch_64">
    <path d="M 291.789953 254.22 
L 301.732771 254.22 
L 301.732771 158.98682 
L 291.789953 158.98682 
z
" clip-path="url(#pad44d8f646)" style="fill: #1f77b4; fill-opacity: 0.75; stroke: #ffffff; stroke-width: 0.907047; stroke-linejoin: miter"/>
   </g>
   <g id="patch_65">
    <path d="M 301.732771 254.22 
L 311.675588 254.22 
L 311.675588 141.130599 
L 301.732771 141.130599 
z
" clip-path="url(#pad44d8f646)" style="fill: #1f77b4; fill-opacity: 0.75; stroke: #ffffff; stroke-width: 0.907047; stroke-linejoin: miter"/>
   </g>
   <g id="patch_66">
    <path d="M 311.675588 254.22 
L 321.618406 254.22 
L 321.618406 69.705714 
L 311.675588 69.705714 
z
" clip-path="url(#pad44d8f646)" style="fill: #1f77b4; fill-opacity: 0.75; stroke: #ffffff; stroke-width: 0.907047; stroke-linejoin: miter"/>
   </g>
   <g id="patch_67">
    <path d="M 321.618406 254.22 
L 331.561224 254.22 
L 331.561224 153.034747 
L 321.618406 153.034747 
z
" clip-path="url(#pad44d8f646)" style="fill: #1f77b4; fill-opacity: 0.75; stroke: #ffffff; stroke-width: 0.907047; stroke-linejoin: miter"/>
   </g>
   <g id="patch_68">
    <path d="M 331.561224 254.22 
L 341.504041 254.22 
L 341.504041 176.843041 
L 331.561224 176.843041 
z
" clip-path="url(#pad44d8f646)" style="fill: #1f77b4; fill-opacity: 0.75; stroke: #ffffff; stroke-width: 0.907047; stroke-linejoin: miter"/>
   </g>
   <g id="patch_69">
    <path d="M 341.504041 254.22 
L 351.446859 254.22 
L 351.446859 164.938894 
L 341.504041 164.938894 
z
" clip-path="url(#pad44d8f646)" style="fill: #1f77b4; fill-opacity: 0.75; stroke: #ffffff; stroke-width: 0.907047; stroke-linejoin: miter"/>
   </g>
   <g id="patch_70">
    <path d="M 351.446859 254.22 
L 361.389677 254.22 
L 361.389677 170.890968 
L 351.446859 170.890968 
z
" clip-path="url(#pad44d8f646)" style="fill: #1f77b4; fill-opacity: 0.75; stroke: #ffffff; stroke-width: 0.907047; stroke-linejoin: miter"/>
   </g>
   <g id="patch_71">
    <path d="M 361.389677 254.22 
L 371.332494 254.22 
L 371.332494 182.795115 
L 361.389677 182.795115 
z
" clip-path="url(#pad44d8f646)" style="fill: #1f77b4; fill-opacity: 0.75; stroke: #ffffff; stroke-width: 0.907047; stroke-linejoin: miter"/>
   </g>
   <g id="patch_72">
    <path d="M 371.332494 254.22 
L 381.275312 254.22 
L 381.275312 236.363779 
L 371.332494 236.363779 
z
" clip-path="url(#pad44d8f646)" style="fill: #1f77b4; fill-opacity: 0.75; stroke: #ffffff; stroke-width: 0.907047; stroke-linejoin: miter"/>
   </g>
   <g id="line2d_1">
    <path d="M 231.895375 254.22 
L 231.895375 60.48 
" clip-path="url(#pad44d8f646)" style="fill: none; stroke-dasharray: 7.4,3.2; stroke-dashoffset: 0; stroke: #1f77b4; stroke-width: 2"/>
   </g>
   <g id="line2d_2">
    <path d="M 227.070822 254.22 
L 227.070822 60.48 
" clip-path="url(#pad44d8f646)" style="fill: none; stroke-dasharray: 7.4,3.2; stroke-dashoffset: 0; stroke: #404040; stroke-width: 2"/>
   </g>
   <g id="patch_73">
    <path d="M 67.360781 254.22 
L 67.360781 60.48 
" style="fill: none; stroke: #262626; stroke-width: 1.875; stroke-linejoin: miter; stroke-linecap: square"/>
   </g>
   <g id="patch_74">
    <path d="M 400.996294 254.22 
L 400.996294 60.48 
" style="fill: none; stroke: #262626; stroke-width: 1.875; stroke-linejoin: miter; stroke-linecap: square"/>
   </g>
   <g id="patch_75">
    <path d="M 67.360781 254.22 
L 400.996294 254.22 
" style="fill: none; stroke: #262626; stroke-width: 1.875; stroke-linejoin: miter; stroke-linecap: square"/>
   </g>
   <g id="patch_76">
    <path d="M 67.360781 60.48 
L 400.996294 60.48 
" style="fill: none; stroke: #262626; stroke-width: 1.875; stroke-linejoin: miter; stroke-linecap: square"/>
   </g>
   <g id="legend_1">
    <g id="patch_77">
     <path d="M 242.361684 87.867422 
L 275.361684 87.867422 
L 275.361684 76.317422 
L 242.361684 76.317422 
z
" style="fill: #b2b2b2; fill-opacity: 0.75; stroke: #ffffff; stroke-width: 0.691736; stroke-linejoin: miter"/>
    </g>
    <g id="text_14">
     <!-- background -->
     <g style="fill: #262626" transform="translate(288.561684 87.867422) scale(0.165 -0.165)">
      <defs>
       <path id="DejaVuSans-62" d="M 3116 1747 
Q 3116 2381 2855 2742 
Q 2594 3103 2138 3103 
Q 1681 3103 1420 2742 
Q 1159 2381 1159 1747 
Q 1159 1113 1420 752 
Q 1681 391 2138 391 
Q 2594 391 2855 752 
Q 3116 1113 3116 1747 
z
M 1159 2969 
Q 1341 3281 1617 3432 
Q 1894 3584 2278 3584 
Q 2916 3584 3314 3078 
Q 3713 2572 3713 1747 
Q 3713 922 3314 415 
Q 2916 -91 2278 -91 
Q 1894 -91 1617 61 
Q 1341 213 1159 525 
L 1159 0 
L 581 0 
L 581 4863 
L 1159 4863 
L 1159 2969 
z
" transform="scale(0.015625)"/>
       <path id="DejaVuSans-6b" d="M 581 4863 
L 1159 4863 
L 1159 1991 
L 2875 3500 
L 3609 3500 
L 1753 1863 
L 3688 0 
L 2938 0 
L 1159 1709 
L 1159 0 
L 581 0 
L 581 4863 
z
" transform="scale(0.015625)"/>
       <path id="DejaVuSans-67" d="M 2906 1791 
Q 2906 2416 2648 2759 
Q 2391 3103 1925 3103 
Q 1463 3103 1205 2759 
Q 947 2416 947 1791 
Q 947 1169 1205 825 
Q 1463 481 1925 481 
Q 2391 481 2648 825 
Q 2906 1169 2906 1791 
z
M 3481 434 
Q 3481 -459 3084 -895 
Q 2688 -1331 1869 -1331 
Q 1566 -1331 1297 -1286 
Q 1028 -1241 775 -1147 
L 775 -588 
Q 1028 -725 1275 -790 
Q 1522 -856 1778 -856 
Q 2344 -856 2625 -561 
Q 2906 -266 2906 331 
L 2906 616 
Q 2728 306 2450 153 
Q 2172 0 1784 0 
Q 1141 0 747 490 
Q 353 981 353 1791 
Q 353 2603 747 3093 
Q 1141 3584 1784 3584 
Q 2172 3584 2450 3431 
Q 2728 3278 2906 2969 
L 2906 3500 
L 3481 3500 
L 3481 434 
z
" transform="scale(0.015625)"/>
       <path id="DejaVuSans-75" d="M 544 1381 
L 544 3500 
L 1119 3500 
L 1119 1403 
Q 1119 906 1312 657 
Q 1506 409 1894 409 
Q 2359 409 2629 706 
Q 2900 1003 2900 1516 
L 2900 3500 
L 3475 3500 
L 3475 0 
L 2900 0 
L 2900 538 
Q 2691 219 2414 64 
Q 2138 -91 1772 -91 
Q 1169 -91 856 284 
Q 544 659 544 1381 
z
M 1991 3584 
L 1991 3584 
z
" transform="scale(0.015625)"/>
      </defs>
      <use xlink:href="#DejaVuSans-62"/>
      <use xlink:href="#DejaVuSans-61" transform="translate(63.476562 0)"/>
      <use xlink:href="#DejaVuSans-63" transform="translate(124.755859 0)"/>
      <use xlink:href="#DejaVuSans-6b" transform="translate(179.736328 0)"/>
      <use xlink:href="#DejaVuSans-67" transform="translate(237.646484 0)"/>
      <use xlink:href="#DejaVuSans-72" transform="translate(301.123047 0)"/>
      <use xlink:href="#DejaVuSans-6f" transform="translate(339.986328 0)"/>
      <use xlink:href="#DejaVuSans-75" transform="translate(401.167969 0)"/>
      <use xlink:href="#DejaVuSans-6e" transform="translate(464.546875 0)"/>
      <use xlink:href="#DejaVuSans-64" transform="translate(527.925781 0)"/>
     </g>
    </g>
    <g id="patch_78">
     <path d="M 242.361684 112.086328 
L 275.361684 112.086328 
L 275.361684 100.536328 
L 242.361684 100.536328 
z
" style="fill: #1f77b4; fill-opacity: 0.75; stroke: #ffffff; stroke-width: 0.907047; stroke-linejoin: miter"/>
    </g>
    <g id="text_15">
     <!-- top 10 -->
     <g style="fill: #262626" transform="translate(288.561684 112.086328) scale(0.165 -0.165)">
      <use xlink:href="#DejaVuSans-74"/>
      <use xlink:href="#DejaVuSans-6f" transform="translate(39.208984 0)"/>
      <use xlink:href="#DejaVuSans-70" transform="translate(100.390625 0)"/>
      <use xlink:href="#DejaVuSans-20" transform="translate(163.867188 0)"/>
      <use xlink:href="#DejaVuSans-31" transform="translate(195.654297 0)"/>
      <use xlink:href="#DejaVuSans-30" transform="translate(259.277344 0)"/>
     </g>
    </g>
   </g>
  </g>
  <g id="axes_2">
   <g id="patch_79">
    <path d="M 498.695269 254.22 
L 832.330781 254.22 
L 832.330781 60.48 
L 498.695269 60.48 
z
" style="fill: #ffffff"/>
   </g>
   <g id="matplotlib.axis_3">
    <g id="xtick_7">
     <g id="text_16">
      <!-- 0.42 -->
      <g style="fill: #262626" transform="translate(491.847116 279.257422) scale(0.165 -0.165)">
       <use xlink:href="#DejaVuSans-30"/>
       <use xlink:href="#DejaVuSans-2e" transform="translate(63.623047 0)"/>
       <use xlink:href="#DejaVuSans-34" transform="translate(95.410156 0)"/>
       <use xlink:href="#DejaVuSans-32" transform="translate(159.033203 0)"/>
      </g>
     </g>
    </g>
    <g id="xtick_8">
     <g id="text_17">
      <!-- 0.44 -->
      <g style="fill: #262626" transform="translate(575.996369 279.257422) scale(0.165 -0.165)">
       <use xlink:href="#DejaVuSans-30"/>
       <use xlink:href="#DejaVuSans-2e" transform="translate(63.623047 0)"/>
       <use xlink:href="#DejaVuSans-34" transform="translate(95.410156 0)"/>
       <use xlink:href="#DejaVuSans-34" transform="translate(159.033203 0)"/>
      </g>
     </g>
    </g>
    <g id="xtick_9">
     <g id="text_18">
      <!-- 0.46 -->
      <g style="fill: #262626" transform="translate(660.145622 279.257422) scale(0.165 -0.165)">
       <use xlink:href="#DejaVuSans-30"/>
       <use xlink:href="#DejaVuSans-2e" transform="translate(63.623047 0)"/>
       <use xlink:href="#DejaVuSans-34" transform="translate(95.410156 0)"/>
       <use xlink:href="#DejaVuSans-36" transform="translate(159.033203 0)"/>
      </g>
     </g>
    </g>
    <g id="xtick_10">
     <g id="text_19">
      <!-- 0.48 -->
      <g style="fill: #262626" transform="translate(744.294874 279.257422) scale(0.165 -0.165)">
       <use xlink:href="#DejaVuSans-30"/>
       <use xlink:href="#DejaVuSans-2e" transform="translate(63.623047 0)"/>
       <use xlink:href="#DejaVuSans-34" transform="translate(95.410156 0)"/>
       <use xlink:href="#DejaVuSans-38" transform="translate(159.033203 0)"/>
      </g>
     </g>
    </g>
    <g id="text_20">
     <!-- Row-wise mean top-K |correlation| -->
     <g style="fill: #262626" transform="translate(511.109587 300.444844) scale(0.18 -0.18)">
      <defs>
       <path id="DejaVuSans-52" d="M 2841 2188 
Q 3044 2119 3236 1894 
Q 3428 1669 3622 1275 
L 4263 0 
L 3584 0 
L 2988 1197 
Q 2756 1666 2539 1819 
Q 2322 1972 1947 1972 
L 1259 1972 
L 1259 0 
L 628 0 
L 628 4666 
L 2053 4666 
Q 2853 4666 3247 4331 
Q 3641 3997 3641 3322 
Q 3641 2881 3436 2590 
Q 3231 2300 2841 2188 
z
M 1259 4147 
L 1259 2491 
L 2053 2491 
Q 2509 2491 2742 2702 
Q 2975 2913 2975 3322 
Q 2975 3731 2742 3939 
Q 2509 4147 2053 4147 
L 1259 4147 
z
" transform="scale(0.015625)"/>
       <path id="DejaVuSans-77" d="M 269 3500 
L 844 3500 
L 1563 769 
L 2278 3500 
L 2956 3500 
L 3675 769 
L 4391 3500 
L 4966 3500 
L 4050 0 
L 3372 0 
L 2619 2869 
L 1863 0 
L 1184 0 
L 269 3500 
z
" transform="scale(0.015625)"/>
       <path id="DejaVuSans-4b" d="M 628 4666 
L 1259 4666 
L 1259 2694 
L 3353 4666 
L 4166 4666 
L 1850 2491 
L 4331 0 
L 3500 0 
L 1259 2247 
L 1259 0 
L 628 0 
L 628 4666 
z
" transform="scale(0.015625)"/>
      </defs>
      <use xlink:href="#DejaVuSans-52"/>
      <use xlink:href="#DejaVuSans-6f" transform="translate(64.982422 0)"/>
      <use xlink:href="#DejaVuSans-77" transform="translate(126.164062 0)"/>
      <use xlink:href="#DejaVuSans-2d" transform="translate(207.951172 0)"/>
      <use xlink:href="#DejaVuSans-77" transform="translate(244.035156 0)"/>
      <use xlink:href="#DejaVuSans-69" transform="translate(325.822266 0)"/>
      <use xlink:href="#DejaVuSans-73" transform="translate(353.605469 0)"/>
      <use xlink:href="#DejaVuSans-65" transform="translate(405.705078 0)"/>
      <use xlink:href="#DejaVuSans-20" transform="translate(467.228516 0)"/>
      <use xlink:href="#DejaVuSans-6d" transform="translate(499.015625 0)"/>
      <use xlink:href="#DejaVuSans-65" transform="translate(596.427734 0)"/>
      <use xlink:href="#DejaVuSans-61" transform="translate(657.951172 0)"/>
      <use xlink:href="#DejaVuSans-6e" transform="translate(719.230469 0)"/>
      <use xlink:href="#DejaVuSans-20" transform="translate(782.609375 0)"/>
      <use xlink:href="#DejaVuSans-74" transform="translate(814.396484 0)"/>
      <use xlink:href="#DejaVuSans-6f" transform="translate(853.605469 0)"/>
      <use xlink:href="#DejaVuSans-70" transform="translate(914.787109 0)"/>
      <use xlink:href="#DejaVuSans-2d" transform="translate(978.263672 0)"/>
      <use xlink:href="#DejaVuSans-4b" transform="translate(1014.347656 0)"/>
      <use xlink:href="#DejaVuSans-20" transform="translate(1079.923828 0)"/>
      <use xlink:href="#DejaVuSans-7c" transform="translate(1111.710938 0)"/>
      <use xlink:href="#DejaVuSans-63" transform="translate(1145.402344 0)"/>
      <use xlink:href="#DejaVuSans-6f" transform="translate(1200.382812 0)"/>
      <use xlink:href="#DejaVuSans-72" transform="translate(1261.564453 0)"/>
      <use xlink:href="#DejaVuSans-72" transform="translate(1300.927734 0)"/>
      <use xlink:href="#DejaVuSans-65" transform="translate(1339.791016 0)"/>
      <use xlink:href="#DejaVuSans-6c" transform="translate(1401.314453 0)"/>
      <use xlink:href="#DejaVuSans-61" transform="translate(1429.097656 0)"/>
      <use xlink:href="#DejaVuSans-74" transform="translate(1490.376953 0)"/>
      <use xlink:href="#DejaVuSans-69" transform="translate(1529.585938 0)"/>
      <use xlink:href="#DejaVuSans-6f" transform="translate(1557.369141 0)"/>
      <use xlink:href="#DejaVuSans-6e" transform="translate(1618.550781 0)"/>
      <use xlink:href="#DejaVuSans-7c" transform="translate(1681.929688 0)"/>
     </g>
    </g>
   </g>
   <g id="matplotlib.axis_4">
    <g id="ytick_6">
     <g id="text_21">
      <!-- 0 -->
      <g style="fill: #262626" transform="translate(475.697144 260.488711) scale(0.165 -0.165)">
       <use xlink:href="#DejaVuSans-30"/>
      </g>
     </g>
    </g>
    <g id="ytick_7">
     <g id="text_22">
      <!-- 200 -->
      <g style="fill: #262626" transform="translate(454.700894 201.53846) scale(0.165 -0.165)">
       <use xlink:href="#DejaVuSans-32"/>
       <use xlink:href="#DejaVuSans-30" transform="translate(63.623047 0)"/>
       <use xlink:href="#DejaVuSans-30" transform="translate(127.246094 0)"/>
      </g>
     </g>
    </g>
    <g id="ytick_8">
     <g id="text_23">
      <!-- 400 -->
      <g style="fill: #262626" transform="translate(454.700894 142.588209) scale(0.165 -0.165)">
       <use xlink:href="#DejaVuSans-34"/>
       <use xlink:href="#DejaVuSans-30" transform="translate(63.623047 0)"/>
       <use xlink:href="#DejaVuSans-30" transform="translate(127.246094 0)"/>
      </g>
     </g>
    </g>
    <g id="ytick_9">
     <g id="text_24">
      <!-- 600 -->
      <g style="fill: #262626" transform="translate(454.700894 83.637958) scale(0.165 -0.165)">
       <use xlink:href="#DejaVuSans-36"/>
       <use xlink:href="#DejaVuSans-30" transform="translate(63.623047 0)"/>
       <use xlink:href="#DejaVuSans-30" transform="translate(127.246094 0)"/>
      </g>
     </g>
    </g>
    <g id="text_25">
     <!-- Permutation count -->
     <g style="fill: #262626" transform="translate(446.957456 240.535312) rotate(-90) scale(0.18 -0.18)">
      <defs>
       <path id="DejaVuSans-50" d="M 1259 4147 
L 1259 2394 
L 2053 2394 
Q 2494 2394 2734 2622 
Q 2975 2850 2975 3272 
Q 2975 3691 2734 3919 
Q 2494 4147 2053 4147 
L 1259 4147 
z
M 628 4666 
L 2053 4666 
Q 2838 4666 3239 4311 
Q 3641 3956 3641 3272 
Q 3641 2581 3239 2228 
Q 2838 1875 2053 1875 
L 1259 1875 
L 1259 0 
L 628 0 
L 628 4666 
z
" transform="scale(0.015625)"/>
      </defs>
      <use xlink:href="#DejaVuSans-50"/>
      <use xlink:href="#DejaVuSans-65" transform="translate(56.677734 0)"/>
      <use xlink:href="#DejaVuSans-72" transform="translate(118.201172 0)"/>
      <use xlink:href="#DejaVuSans-6d" transform="translate(157.564453 0)"/>
      <use xlink:href="#DejaVuSans-75" transform="translate(254.976562 0)"/>
      <use xlink:href="#DejaVuSans-74" transform="translate(318.355469 0)"/>
      <use xlink:href="#DejaVuSans-61" transform="translate(357.564453 0)"/>
      <use xlink:href="#DejaVuSans-74" transform="translate(418.84375 0)"/>
      <use xlink:href="#DejaVuSans-69" transform="translate(458.052734 0)"/>
      <use xlink:href="#DejaVuSans-6f" transform="translate(485.835938 0)"/>
      <use xlink:href="#DejaVuSans-6e" transform="translate(547.017578 0)"/>
      <use xlink:href="#DejaVuSans-20" transform="translate(610.396484 0)"/>
      <use xlink:href="#DejaVuSans-63" transform="translate(642.183594 0)"/>
      <use xlink:href="#DejaVuSans-6f" transform="translate(697.164062 0)"/>
      <use xlink:href="#DejaVuSans-75" transform="translate(758.345703 0)"/>
      <use xlink:href="#DejaVuSans-6e" transform="translate(821.724609 0)"/>
      <use xlink:href="#DejaVuSans-74" transform="translate(885.103516 0)"/>
     </g>
    </g>
   </g>
   <g id="patch_80">
    <path d="M 513.860519 254.22 
L 519.92662 254.22 
L 519.92662 253.925249 
L 513.860519 253.925249 
z
" clip-path="url(#pced5fa4434)" style="fill: #b2b2b2; fill-opacity: 0.75; stroke: #ffffff; stroke-width: 0.553388; stroke-linejoin: miter"/>
   </g>
   <g id="patch_81">
    <path d="M 519.92662 254.22 
L 525.99272 254.22 
L 525.99272 254.22 
L 519.92662 254.22 
z
" clip-path="url(#pced5fa4434)" style="fill: #b2b2b2; fill-opacity: 0.75; stroke: #ffffff; stroke-width: 0.553388; stroke-linejoin: miter"/>
   </g>
   <g id="patch_82">
    <path d="M 525.99272 254.22 
L 532.05882 254.22 
L 532.05882 254.22 
L 525.99272 254.22 
z
" clip-path="url(#pced5fa4434)" style="fill: #b2b2b2; fill-opacity: 0.75; stroke: #ffffff; stroke-width: 0.553388; stroke-linejoin: miter"/>
   </g>
   <g id="patch_83">
    <path d="M 532.05882 254.22 
L 538.12492 254.22 
L 538.12492 253.925249 
L 532.05882 253.925249 
z
" clip-path="url(#pced5fa4434)" style="fill: #b2b2b2; fill-opacity: 0.75; stroke: #ffffff; stroke-width: 0.553388; stroke-linejoin: miter"/>
   </g>
   <g id="patch_84">
    <path d="M 538.12492 254.22 
L 544.19102 254.22 
L 544.19102 253.335746 
L 538.12492 253.335746 
z
" clip-path="url(#pced5fa4434)" style="fill: #b2b2b2; fill-opacity: 0.75; stroke: #ffffff; stroke-width: 0.553388; stroke-linejoin: miter"/>
   </g>
   <g id="patch_85">
    <path d="M 544.19102 254.22 
L 550.257121 254.22 
L 550.257121 253.040995 
L 544.19102 253.040995 
z
" clip-path="url(#pced5fa4434)" style="fill: #b2b2b2; fill-opacity: 0.75; stroke: #ffffff; stroke-width: 0.553388; stroke-linejoin: miter"/>
   </g>
   <g id="patch_86">
    <path d="M 550.257121 254.22 
L 556.323221 254.22 
L 556.323221 251.272487 
L 550.257121 251.272487 
z
" clip-path="url(#pced5fa4434)" style="fill: #b2b2b2; fill-opacity: 0.75; stroke: #ffffff; stroke-width: 0.553388; stroke-linejoin: miter"/>
   </g>
   <g id="patch_87">
    <path d="M 556.323221 254.22 
L 562.389321 254.22 
L 562.389321 248.914477 
L 556.323221 248.914477 
z
" clip-path="url(#pced5fa4434)" style="fill: #b2b2b2; fill-opacity: 0.75; stroke: #ffffff; stroke-width: 0.553388; stroke-linejoin: miter"/>
   </g>
   <g id="patch_88">
    <path d="M 562.389321 254.22 
L 568.455421 254.22 
L 568.455421 246.261716 
L 562.389321 246.261716 
z
" clip-path="url(#pced5fa4434)" style="fill: #b2b2b2; fill-opacity: 0.75; stroke: #ffffff; stroke-width: 0.553388; stroke-linejoin: miter"/>
   </g>
   <g id="patch_89">
    <path d="M 568.455421 254.22 
L 574.521522 254.22 
L 574.521522 246.851219 
L 568.455421 246.851219 
z
" clip-path="url(#pced5fa4434)" style="fill: #b2b2b2; fill-opacity: 0.75; stroke: #ffffff; stroke-width: 0.553388; stroke-linejoin: miter"/>
   </g>
   <g id="patch_90">
    <path d="M 574.521522 254.22 
L 580.587622 254.22 
L 580.587622 238.008681 
L 574.521522 238.008681 
z
" clip-path="url(#pced5fa4434)" style="fill: #b2b2b2; fill-opacity: 0.75; stroke: #ffffff; stroke-width: 0.553388; stroke-linejoin: miter"/>
   </g>
   <g id="patch_91">
    <path d="M 580.587622 254.22 
L 586.653722 254.22 
L 586.653722 236.534925 
L 580.587622 236.534925 
z
" clip-path="url(#pced5fa4434)" style="fill: #b2b2b2; fill-opacity: 0.75; stroke: #ffffff; stroke-width: 0.553388; stroke-linejoin: miter"/>
   </g>
   <g id="patch_92">
    <path d="M 586.653722 254.22 
L 592.719822 254.22 
L 592.719822 229.755646 
L 586.653722 229.755646 
z
" clip-path="url(#pced5fa4434)" style="fill: #b2b2b2; fill-opacity: 0.75; stroke: #ffffff; stroke-width: 0.553388; stroke-linejoin: miter"/>
   </g>
   <g id="patch_93">
    <path d="M 592.719822 254.22 
L 598.785922 254.22 
L 598.785922 217.965596 
L 592.719822 217.965596 
z
" clip-path="url(#pced5fa4434)" style="fill: #b2b2b2; fill-opacity: 0.75; stroke: #ffffff; stroke-width: 0.553388; stroke-linejoin: miter"/>
   </g>
   <g id="patch_94">
    <path d="M 598.785922 254.22 
L 604.852023 254.22 
L 604.852023 211.481068 
L 598.785922 211.481068 
z
" clip-path="url(#pced5fa4434)" style="fill: #b2b2b2; fill-opacity: 0.75; stroke: #ffffff; stroke-width: 0.553388; stroke-linejoin: miter"/>
   </g>
   <g id="patch_95">
    <path d="M 604.852023 254.22 
L 610.918123 254.22 
L 610.918123 199.396267 
L 604.852023 199.396267 
z
" clip-path="url(#pced5fa4434)" style="fill: #b2b2b2; fill-opacity: 0.75; stroke: #ffffff; stroke-width: 0.553388; stroke-linejoin: miter"/>
   </g>
   <g id="patch_96">
    <path d="M 610.918123 254.22 
L 616.984223 254.22 
L 616.984223 193.795993 
L 610.918123 193.795993 
z
" clip-path="url(#pced5fa4434)" style="fill: #b2b2b2; fill-opacity: 0.75; stroke: #ffffff; stroke-width: 0.553388; stroke-linejoin: miter"/>
   </g>
   <g id="patch_97">
    <path d="M 616.984223 254.22 
L 623.050323 254.22 
L 623.050323 156.362583 
L 616.984223 156.362583 
z
" clip-path="url(#pced5fa4434)" style="fill: #b2b2b2; fill-opacity: 0.75; stroke: #ffffff; stroke-width: 0.553388; stroke-linejoin: miter"/>
   </g>
   <g id="patch_98">
    <path d="M 623.050323 254.22 
L 629.116424 254.22 
L 629.116424 152.236066 
L 623.050323 152.236066 
z
" clip-path="url(#pced5fa4434)" style="fill: #b2b2b2; fill-opacity: 0.75; stroke: #ffffff; stroke-width: 0.553388; stroke-linejoin: miter"/>
   </g>
   <g id="patch_99">
    <path d="M 629.116424 254.22 
L 635.182524 254.22 
L 635.182524 135.729995 
L 629.116424 135.729995 
z
" clip-path="url(#pced5fa4434)" style="fill: #b2b2b2; fill-opacity: 0.75; stroke: #ffffff; stroke-width: 0.553388; stroke-linejoin: miter"/>
   </g>
   <g id="patch_100">
    <path d="M 635.182524 254.22 
L 641.248624 254.22 
L 641.248624 122.76094 
L 635.182524 122.76094 
z
" clip-path="url(#pced5fa4434)" style="fill: #b2b2b2; fill-opacity: 0.75; stroke: #ffffff; stroke-width: 0.553388; stroke-linejoin: miter"/>
   </g>
   <g id="patch_101">
    <path d="M 641.248624 254.22 
L 647.314724 254.22 
L 647.314724 97.117581 
L 641.248624 97.117581 
z
" clip-path="url(#pced5fa4434)" style="fill: #b2b2b2; fill-opacity: 0.75; stroke: #ffffff; stroke-width: 0.553388; stroke-linejoin: miter"/>
   </g>
   <g id="patch_102">
    <path d="M 647.314724 254.22 
L 653.380825 254.22 
L 653.380825 89.454048 
L 647.314724 89.454048 
z
" clip-path="url(#pced5fa4434)" style="fill: #b2b2b2; fill-opacity: 0.75; stroke: #ffffff; stroke-width: 0.553388; stroke-linejoin: miter"/>
   </g>
   <g id="patch_103">
    <path d="M 653.380825 254.22 
L 659.446925 254.22 
L 659.446925 78.843003 
L 653.380825 78.843003 
z
" clip-path="url(#pced5fa4434)" style="fill: #b2b2b2; fill-opacity: 0.75; stroke: #ffffff; stroke-width: 0.553388; stroke-linejoin: miter"/>
   </g>
   <g id="patch_104">
    <path d="M 659.446925 254.22 
L 665.513025 254.22 
L 665.513025 87.096038 
L 659.446925 87.096038 
z
" clip-path="url(#pced5fa4434)" style="fill: #b2b2b2; fill-opacity: 0.75; stroke: #ffffff; stroke-width: 0.553388; stroke-linejoin: miter"/>
   </g>
   <g id="patch_105">
    <path d="M 665.513025 254.22 
L 671.579125 254.22 
L 671.579125 69.705714 
L 665.513025 69.705714 
z
" clip-path="url(#pced5fa4434)" style="fill: #b2b2b2; fill-opacity: 0.75; stroke: #ffffff; stroke-width: 0.553388; stroke-linejoin: miter"/>
   </g>
   <g id="patch_106">
    <path d="M 671.579125 254.22 
L 677.645225 254.22 
L 677.645225 77.663998 
L 671.579125 77.663998 
z
" clip-path="url(#pced5fa4434)" style="fill: #b2b2b2; fill-opacity: 0.75; stroke: #ffffff; stroke-width: 0.553388; stroke-linejoin: miter"/>
   </g>
   <g id="patch_107">
    <path d="M 677.645225 254.22 
L 683.711326 254.22 
L 683.711326 83.559023 
L 677.645225 83.559023 
z
" clip-path="url(#pced5fa4434)" style="fill: #b2b2b2; fill-opacity: 0.75; stroke: #ffffff; stroke-width: 0.553388; stroke-linejoin: miter"/>
   </g>
   <g id="patch_108">
    <path d="M 683.711326 254.22 
L 689.777426 254.22 
L 689.777426 99.475591 
L 683.711326 99.475591 
z
" clip-path="url(#pced5fa4434)" style="fill: #b2b2b2; fill-opacity: 0.75; stroke: #ffffff; stroke-width: 0.553388; stroke-linejoin: miter"/>
   </g>
   <g id="patch_109">
    <path d="M 689.777426 254.22 
L 695.843526 254.22 
L 695.843526 105.370616 
L 689.777426 105.370616 
z
" clip-path="url(#pced5fa4434)" style="fill: #b2b2b2; fill-opacity: 0.75; stroke: #ffffff; stroke-width: 0.553388; stroke-linejoin: miter"/>
   </g>
   <g id="patch_110">
    <path d="M 695.843526 254.22 
L 701.909626 254.22 
L 701.909626 118.929174 
L 695.843526 118.929174 
z
" clip-path="url(#pced5fa4434)" style="fill: #b2b2b2; fill-opacity: 0.75; stroke: #ffffff; stroke-width: 0.553388; stroke-linejoin: miter"/>
   </g>
   <g id="patch_111">
    <path d="M 701.909626 254.22 
L 707.975727 254.22 
L 707.975727 131.603478 
L 701.909626 131.603478 
z
" clip-path="url(#pced5fa4434)" style="fill: #b2b2b2; fill-opacity: 0.75; stroke: #ffffff; stroke-width: 0.553388; stroke-linejoin: miter"/>
   </g>
   <g id="patch_112">
    <path d="M 707.975727 254.22 
L 714.041827 254.22 
L 714.041827 148.109548 
L 707.975727 148.109548 
z
" clip-path="url(#pced5fa4434)" style="fill: #b2b2b2; fill-opacity: 0.75; stroke: #ffffff; stroke-width: 0.553388; stroke-linejoin: miter"/>
   </g>
   <g id="patch_113">
    <path d="M 714.041827 254.22 
L 720.107927 254.22 
L 720.107927 168.447385 
L 714.041827 168.447385 
z
" clip-path="url(#pced5fa4434)" style="fill: #b2b2b2; fill-opacity: 0.75; stroke: #ffffff; stroke-width: 0.553388; stroke-linejoin: miter"/>
   </g>
   <g id="patch_114">
    <path d="M 720.107927 254.22 
L 726.174027 254.22 
L 726.174027 193.501241 
L 720.107927 193.501241 
z
" clip-path="url(#pced5fa4434)" style="fill: #b2b2b2; fill-opacity: 0.75; stroke: #ffffff; stroke-width: 0.553388; stroke-linejoin: miter"/>
   </g>
   <g id="patch_115">
    <path d="M 726.174027 254.22 
L 732.240127 254.22 
L 732.240127 199.396267 
L 726.174027 199.396267 
z
" clip-path="url(#pced5fa4434)" style="fill: #b2b2b2; fill-opacity: 0.75; stroke: #ffffff; stroke-width: 0.553388; stroke-linejoin: miter"/>
   </g>
   <g id="patch_116">
    <path d="M 732.240127 254.22 
L 738.306228 254.22 
L 738.306228 207.35455 
L 732.240127 207.35455 
z
" clip-path="url(#pced5fa4434)" style="fill: #b2b2b2; fill-opacity: 0.75; stroke: #ffffff; stroke-width: 0.553388; stroke-linejoin: miter"/>
   </g>
   <g id="patch_117">
    <path d="M 738.306228 254.22 
L 744.372328 254.22 
L 744.372328 220.028854 
L 738.306228 220.028854 
z
" clip-path="url(#pced5fa4434)" style="fill: #b2b2b2; fill-opacity: 0.75; stroke: #ffffff; stroke-width: 0.553388; stroke-linejoin: miter"/>
   </g>
   <g id="patch_118">
    <path d="M 744.372328 254.22 
L 750.438428 254.22 
L 750.438428 229.755646 
L 744.372328 229.755646 
z
" clip-path="url(#pced5fa4434)" style="fill: #b2b2b2; fill-opacity: 0.75; stroke: #ffffff; stroke-width: 0.553388; stroke-linejoin: miter"/>
   </g>
   <g id="patch_119">
    <path d="M 750.438428 254.22 
L 756.504528 254.22 
L 756.504528 239.777188 
L 750.438428 239.777188 
z
" clip-path="url(#pced5fa4434)" style="fill: #b2b2b2; fill-opacity: 0.75; stroke: #ffffff; stroke-width: 0.553388; stroke-linejoin: miter"/>
   </g>
   <g id="patch_120">
    <path d="M 756.504528 254.22 
L 762.570629 254.22 
L 762.570629 244.198457 
L 756.504528 244.198457 
z
" clip-path="url(#pced5fa4434)" style="fill: #b2b2b2; fill-opacity: 0.75; stroke: #ffffff; stroke-width: 0.553388; stroke-linejoin: miter"/>
   </g>
   <g id="patch_121">
    <path d="M 762.570629 254.22 
L 768.636729 254.22 
L 768.636729 245.966965 
L 762.570629 245.966965 
z
" clip-path="url(#pced5fa4434)" style="fill: #b2b2b2; fill-opacity: 0.75; stroke: #ffffff; stroke-width: 0.553388; stroke-linejoin: miter"/>
   </g>
   <g id="patch_122">
    <path d="M 768.636729 254.22 
L 774.702829 254.22 
L 774.702829 247.14597 
L 768.636729 247.14597 
z
" clip-path="url(#pced5fa4434)" style="fill: #b2b2b2; fill-opacity: 0.75; stroke: #ffffff; stroke-width: 0.553388; stroke-linejoin: miter"/>
   </g>
   <g id="patch_123">
    <path d="M 774.702829 254.22 
L 780.768929 254.22 
L 780.768929 251.567239 
L 774.702829 251.567239 
z
" clip-path="url(#pced5fa4434)" style="fill: #b2b2b2; fill-opacity: 0.75; stroke: #ffffff; stroke-width: 0.553388; stroke-linejoin: miter"/>
   </g>
   <g id="patch_124">
    <path d="M 780.768929 254.22 
L 786.83503 254.22 
L 786.83503 251.272487 
L 780.768929 251.272487 
z
" clip-path="url(#pced5fa4434)" style="fill: #b2b2b2; fill-opacity: 0.75; stroke: #ffffff; stroke-width: 0.553388; stroke-linejoin: miter"/>
   </g>
   <g id="patch_125">
    <path d="M 786.83503 254.22 
L 792.90113 254.22 
L 792.90113 253.630497 
L 786.83503 253.630497 
z
" clip-path="url(#pced5fa4434)" style="fill: #b2b2b2; fill-opacity: 0.75; stroke: #ffffff; stroke-width: 0.553388; stroke-linejoin: miter"/>
   </g>
   <g id="patch_126">
    <path d="M 792.90113 254.22 
L 798.96723 254.22 
L 798.96723 253.335746 
L 792.90113 253.335746 
z
" clip-path="url(#pced5fa4434)" style="fill: #b2b2b2; fill-opacity: 0.75; stroke: #ffffff; stroke-width: 0.553388; stroke-linejoin: miter"/>
   </g>
   <g id="patch_127">
    <path d="M 798.96723 254.22 
L 805.03333 254.22 
L 805.03333 253.925249 
L 798.96723 253.925249 
z
" clip-path="url(#pced5fa4434)" style="fill: #b2b2b2; fill-opacity: 0.75; stroke: #ffffff; stroke-width: 0.553388; stroke-linejoin: miter"/>
   </g>
   <g id="patch_128">
    <path d="M 805.03333 254.22 
L 811.09943 254.22 
L 811.09943 253.630497 
L 805.03333 253.630497 
z
" clip-path="url(#pced5fa4434)" style="fill: #b2b2b2; fill-opacity: 0.75; stroke: #ffffff; stroke-width: 0.553388; stroke-linejoin: miter"/>
   </g>
   <g id="patch_129">
    <path d="M 811.09943 254.22 
L 817.165531 254.22 
L 817.165531 253.630497 
L 811.09943 253.630497 
z
" clip-path="url(#pced5fa4434)" style="fill: #b2b2b2; fill-opacity: 0.75; stroke: #ffffff; stroke-width: 0.553388; stroke-linejoin: miter"/>
   </g>
   <g id="line2d_3">
    <path d="M 719.411236 254.22 
L 719.411236 60.48 
" clip-path="url(#pced5fa4434)" style="fill: none; stroke-dasharray: 7.4,3.2; stroke-dashoffset: 0; stroke: #d62728; stroke-width: 2"/>
   </g>
   <g id="patch_130">
    <path d="M 498.695269 254.22 
L 498.695269 60.48 
" style="fill: none; stroke: #262626; stroke-width: 1.875; stroke-linejoin: miter; stroke-linecap: square"/>
   </g>
   <g id="patch_131">
    <path d="M 832.330781 254.22 
L 832.330781 60.48 
" style="fill: none; stroke: #262626; stroke-width: 1.875; stroke-linejoin: miter; stroke-linecap: square"/>
   </g>
   <g id="patch_132">
    <path d="M 498.695269 254.22 
L 832.330781 254.22 
" style="fill: none; stroke: #262626; stroke-width: 1.875; stroke-linejoin: miter; stroke-linecap: square"/>
   </g>
   <g id="patch_133">
    <path d="M 498.695269 60.48 
L 832.330781 60.48 
" style="fill: none; stroke: #262626; stroke-width: 1.875; stroke-linejoin: miter; stroke-linecap: square"/>
   </g>
   <g id="legend_2">
    <g id="line2d_4">
     <path d="M 694.785234 82.092422 
L 711.285234 82.092422 
L 727.785234 82.092422 
" style="fill: none; stroke-dasharray: 7.4,3.2; stroke-dashoffset: 0; stroke: #d62728; stroke-width: 2"/>
    </g>
    <g id="text_26">
     <!-- observed -->
     <g style="fill: #262626" transform="translate(740.985234 87.867422) scale(0.165 -0.165)">
      <defs>
       <path id="DejaVuSans-76" d="M 191 3500 
L 800 3500 
L 1894 563 
L 2988 3500 
L 3597 3500 
L 2284 0 
L 1503 0 
L 191 3500 
z
" transform="scale(0.015625)"/>
      </defs>
      <use xlink:href="#DejaVuSans-6f"/>
      <use xlink:href="#DejaVuSans-62" transform="translate(61.181641 0)"/>
      <use xlink:href="#DejaVuSans-73" transform="translate(124.658203 0)"/>
      <use xlink:href="#DejaVuSans-65" transform="translate(176.757812 0)"/>
      <use xlink:href="#DejaVuSans-72" transform="translate(238.28125 0)"/>
      <use xlink:href="#DejaVuSans-76" transform="translate(279.394531 0)"/>
      <use xlink:href="#DejaVuSans-65" transform="translate(338.574219 0)"/>
      <use xlink:href="#DejaVuSans-64" transform="translate(400.097656 0)"/>
     </g>
    </g>
   </g>
  </g>
  <g id="text_27">
   <!-- Top decoder attributions vs decoded sample-mean correlations -->
   <g style="fill: #262626" transform="translate(78.634219 23.612625) scale(0.216 -0.216)">
    <defs>
     <path id="DejaVuSans-54" d="M -19 4666 
L 3928 4666 
L 3928 4134 
L 2272 4134 
L 2272 0 
L 1638 0 
L 1638 4134 
L -19 4134 
L -19 4666 
z
" transform="scale(0.015625)"/>
    </defs>
    <use xlink:href="#DejaVuSans-54"/>
    <use xlink:href="#DejaVuSans-6f" transform="translate(44.083984 0)"/>
    <use xlink:href="#DejaVuSans-70" transform="translate(105.265625 0)"/>
    <use xlink:href="#DejaVuSans-20" transform="translate(168.742188 0)"/>
    <use xlink:href="#DejaVuSans-64" transform="translate(200.529297 0)"/>
    <use xlink:href="#DejaVuSans-65" transform="translate(264.005859 0)"/>
    <use xlink:href="#DejaVuSans-63" transform="translate(325.529297 0)"/>
    <use xlink:href="#DejaVuSans-6f" transform="translate(380.509766 0)"/>
    <use xlink:href="#DejaVuSans-64" transform="translate(441.691406 0)"/>
    <use xlink:href="#DejaVuSans-65" transform="translate(505.167969 0)"/>
    <use xlink:href="#DejaVuSans-72" transform="translate(566.691406 0)"/>
    <use xlink:href="#DejaVuSans-20" transform="translate(607.804688 0)"/>
    <use xlink:href="#DejaVuSans-61" transform="translate(639.591797 0)"/>
    <use xlink:href="#DejaVuSans-74" transform="translate(700.871094 0)"/>
    <use xlink:href="#DejaVuSans-74" transform="translate(740.080078 0)"/>
    <use xlink:href="#DejaVuSans-72" transform="translate(779.289062 0)"/>
    <use xlink:href="#DejaVuSans-69" transform="translate(820.402344 0)"/>
    <use xlink:href="#DejaVuSans-62" transform="translate(848.185547 0)"/>
    <use xlink:href="#DejaVuSans-75" transform="translate(911.662109 0)"/>
    <use xlink:href="#DejaVuSans-74" transform="translate(975.041016 0)"/>
    <use xlink:href="#DejaVuSans-69" transform="translate(1014.25 0)"/>
    <use xlink:href="#DejaVuSans-6f" transform="translate(1042.033203 0)"/>
    <use xlink:href="#DejaVuSans-6e" transform="translate(1103.214844 0)"/>
    <use xlink:href="#DejaVuSans-73" transform="translate(1166.59375 0)"/>
    <use xlink:href="#DejaVuSans-20" transform="translate(1218.693359 0)"/>
    <use xlink:href="#DejaVuSans-76" transform="translate(1250.480469 0)"/>
    <use xlink:href="#DejaVuSans-73" transform="translate(1309.660156 0)"/>
    <use xlink:href="#DejaVuSans-20" transform="translate(1361.759766 0)"/>
    <use xlink:href="#DejaVuSans-64" transform="translate(1393.546875 0)"/>
    <use xlink:href="#DejaVuSans-65" transform="translate(1457.023438 0)"/>
    <use xlink:href="#DejaVuSans-63" transform="translate(1518.546875 0)"/>
    <use xlink:href="#DejaVuSans-6f" transform="translate(1573.527344 0)"/>
    <use xlink:href="#DejaVuSans-64" transform="translate(1634.708984 0)"/>
    <use xlink:href="#DejaVuSans-65" transform="translate(1698.185547 0)"/>
    <use xlink:href="#DejaVuSans-64" transform="translate(1759.708984 0)"/>
    <use xlink:href="#DejaVuSans-20" transform="translate(1823.185547 0)"/>
    <use xlink:href="#DejaVuSans-73" transform="translate(1854.972656 0)"/>
    <use xlink:href="#DejaVuSans-61" transform="translate(1907.072266 0)"/>
    <use xlink:href="#DejaVuSans-6d" transform="translate(1968.351562 0)"/>
    <use xlink:href="#DejaVuSans-70" transform="translate(2065.763672 0)"/>
    <use xlink:href="#DejaVuSans-6c" transform="translate(2129.240234 0)"/>
    <use xlink:href="#DejaVuSans-65" transform="translate(2157.023438 0)"/>
    <use xlink:href="#DejaVuSans-2d" transform="translate(2218.546875 0)"/>
    <use xlink:href="#DejaVuSans-6d" transform="translate(2254.630859 0)"/>
    <use xlink:href="#DejaVuSans-65" transform="translate(2352.042969 0)"/>
    <use xlink:href="#DejaVuSans-61" transform="translate(2413.566406 0)"/>
    <use xlink:href="#DejaVuSans-6e" transform="translate(2474.845703 0)"/>
    <use xlink:href="#DejaVuSans-20" transform="translate(2538.224609 0)"/>
    <use xlink:href="#DejaVuSans-63" transform="translate(2570.011719 0)"/>
    <use xlink:href="#DejaVuSans-6f" transform="translate(2624.992188 0)"/>
    <use xlink:href="#DejaVuSans-72" transform="translate(2686.173828 0)"/>
    <use xlink:href="#DejaVuSans-72" transform="translate(2725.537109 0)"/>
    <use xlink:href="#DejaVuSans-65" transform="translate(2764.400391 0)"/>
    <use xlink:href="#DejaVuSans-6c" transform="translate(2825.923828 0)"/>
    <use xlink:href="#DejaVuSans-61" transform="translate(2853.707031 0)"/>
    <use xlink:href="#DejaVuSans-74" transform="translate(2914.986328 0)"/>
    <use xlink:href="#DejaVuSans-69" transform="translate(2954.195312 0)"/>
    <use xlink:href="#DejaVuSans-6f" transform="translate(2981.978516 0)"/>
    <use xlink:href="#DejaVuSans-6e" transform="translate(3043.160156 0)"/>
    <use xlink:href="#DejaVuSans-73" transform="translate(3106.539062 0)"/>
   </g>
  </g>
 </g>
 <defs>
  <clipPath id="pad44d8f646">
   <rect x="67.360781" y="60.48" width="333.635513" height="193.74"/>
  </clipPath>
  <clipPath id="pced5fa4434">
   <rect x="498.695269" y="60.48" width="333.635513" height="193.74"/>
  </clipPath>
 </defs>
</svg>
